<svg xmlns="http://www.w3.org/2000/svg" xmlns:xlink="http://www.w3.org/1999/xlink" width="256" zoomAndPan="magnify" viewBox="0 0 192 42" height="56" preserveAspectRatio="xMidYMid meet" version="1.0"><defs><g/><clipPath id="06d6d391c4"><path d="M 6.335938 4.101562 L 42 4.101562 L 42 27 L 6.335938 27 Z M 6.335938 4.101562 " clip-rule="nonzero"/></clipPath><clipPath id="76b7ea52e2"><path d="M 6.335938 26 L 42 26 L 42 31 L 6.335938 31 Z M 6.335938 26 " clip-rule="nonzero"/></clipPath><clipPath id="f6ce4eab14"><path d="M 6.335938 4.101562 L 42.230469 4.101562 L 42.230469 37.054688 L 6.335938 37.054688 Z M 6.335938 4.101562 " clip-rule="nonzero"/></clipPath></defs><g clip-path="url(#06d6d391c4)"><path fill="#b5e6fa" d="M 41.675781 26.125 L 41.675781 6.507812 C 41.675781 5.472656 40.847656 4.632812 39.824219 4.632812 L 8.742188 4.632812 C 7.71875 4.632812 6.890625 5.472656 6.890625 6.507812 L 6.890625 26.125 L 41.675781 26.125 " fill-opacity="1" fill-rule="nonzero"/></g><path fill="#d1d6ea" d="M 29.628906 36.511719 L 18.933594 36.511719 L 20.144531 30.992188 L 28.421875 30.992188 L 29.628906 36.511719 " fill-opacity="1" fill-rule="nonzero"/><g clip-path="url(#76b7ea52e2)"><path fill="#f1f4fb" d="M 6.890625 26.125 L 6.890625 29.121094 C 6.890625 30.152344 7.71875 30.992188 8.742188 30.992188 L 39.824219 30.992188 C 40.847656 30.992188 41.675781 30.152344 41.675781 29.121094 L 41.675781 26.125 L 6.890625 26.125 " fill-opacity="1" fill-rule="nonzero"/></g><g clip-path="url(#f6ce4eab14)"><path fill="#4a4b5c" d="M 39.824219 30.449219 L 8.742188 30.449219 C 8.015625 30.449219 7.429688 29.851562 7.429688 29.121094 L 7.429688 26.667969 L 41.136719 26.667969 L 41.136719 29.121094 C 41.136719 29.851562 40.546875 30.449219 39.824219 30.449219 Z M 28.960938 35.964844 L 19.605469 35.964844 L 20.578125 31.535156 L 27.988281 31.535156 Z M 8.742188 5.175781 L 39.824219 5.175781 C 40.546875 5.175781 41.136719 5.773438 41.136719 6.507812 L 41.136719 25.582031 L 7.429688 25.582031 L 7.429688 6.507812 C 7.429688 5.773438 8.015625 5.175781 8.742188 5.175781 Z M 39.824219 4.089844 L 8.742188 4.089844 C 7.425781 4.089844 6.351562 5.171875 6.351562 6.507812 L 6.351562 29.121094 C 6.351562 30.453125 7.425781 31.535156 8.742188 31.535156 L 19.472656 31.535156 L 18.503906 35.964844 L 16.753906 35.964844 C 16.457031 35.964844 16.21875 36.210938 16.21875 36.511719 C 16.21875 36.808594 16.457031 37.054688 16.753906 37.054688 L 31.808594 37.054688 C 32.105469 37.054688 32.347656 36.808594 32.347656 36.511719 C 32.347656 36.210938 32.105469 35.964844 31.808594 35.964844 L 30.0625 35.964844 L 29.089844 31.535156 L 39.824219 31.535156 C 41.140625 31.535156 42.210938 30.453125 42.210938 29.121094 L 42.210938 6.507812 C 42.210938 5.171875 41.140625 4.089844 39.824219 4.089844 " fill-opacity="1" fill-rule="nonzero"/></g><path fill="#f35c76" d="M 24.28125 19.605469 C 26.019531 19.605469 27.425781 18.179688 27.425781 16.425781 L 21.140625 16.425781 C 21.140625 18.179688 22.546875 19.605469 24.28125 19.605469 " fill-opacity="1" fill-rule="nonzero"/><path fill="#ffffff" d="M 21.472656 17.847656 L 27.09375 17.847656 C 27.304688 17.421875 27.425781 16.9375 27.425781 16.425781 L 21.140625 16.425781 C 21.140625 16.9375 21.261719 17.421875 21.472656 17.847656 " fill-opacity="1" fill-rule="nonzero"/><path fill="#4a4b5c" d="M 20.300781 13.910156 L 18.535156 13.125 C 18.261719 13.003906 17.945312 13.132812 17.824219 13.40625 C 17.707031 13.679688 17.832031 14.003906 18.101562 14.121094 L 18.746094 14.40625 L 18.101562 14.691406 C 17.832031 14.8125 17.707031 15.132812 17.824219 15.410156 C 17.914062 15.613281 18.113281 15.734375 18.320312 15.734375 C 18.390625 15.734375 18.464844 15.722656 18.535156 15.6875 L 20.300781 14.90625 C 20.496094 14.820312 20.621094 14.625 20.621094 14.40625 C 20.621094 14.191406 20.496094 13.996094 20.300781 13.910156 " fill-opacity="1" fill-rule="nonzero"/><path fill="#4a4b5c" d="M 24.28125 19.058594 C 23.03125 19.058594 21.984375 18.160156 21.734375 16.96875 L 26.832031 16.96875 C 26.582031 18.160156 25.535156 19.058594 24.28125 19.058594 Z M 27.425781 15.882812 L 21.140625 15.882812 C 20.84375 15.882812 20.601562 16.125 20.601562 16.425781 C 20.601562 18.476562 22.253906 20.148438 24.28125 20.148438 C 26.3125 20.148438 27.960938 18.476562 27.960938 16.425781 C 27.960938 16.125 27.722656 15.882812 27.425781 15.882812 " fill-opacity="1" fill-rule="nonzero"/><path fill="#4a4b5c" d="M 29.214844 13.207031 C 28.558594 13.207031 28.027344 13.746094 28.027344 14.40625 C 28.027344 15.070312 28.558594 15.609375 29.214844 15.609375 C 29.867188 15.609375 30.402344 15.070312 30.402344 14.40625 C 30.402344 13.746094 29.867188 13.207031 29.214844 13.207031 " fill-opacity="1" fill-rule="nonzero"/><g fill="#ff1616" fill-opacity="1"><g transform="translate(53.747879, 24.460704)"><g><path d="M 1.125 -10.46875 L 4.78125 -10.46875 C 6.195312 -10.46875 7.25 -10.253906 7.9375 -9.828125 C 8.632812 -9.410156 8.984375 -8.753906 8.984375 -7.859375 C 8.984375 -7.273438 8.832031 -6.773438 8.53125 -6.359375 C 8.226562 -5.941406 7.832031 -5.671875 7.34375 -5.546875 L 7.34375 -5.484375 C 7.988281 -5.304688 8.457031 -5.015625 8.75 -4.609375 C 9.039062 -4.210938 9.1875 -3.695312 9.1875 -3.0625 C 9.1875 -2.113281 8.828125 -1.363281 8.109375 -0.8125 C 7.398438 -0.269531 6.429688 0 5.203125 0 L 1.125 0 Z M 3.953125 -6.453125 L 4.8125 -6.453125 C 5.21875 -6.453125 5.53125 -6.535156 5.75 -6.703125 C 5.96875 -6.867188 6.078125 -7.113281 6.078125 -7.4375 C 6.078125 -8.03125 5.632812 -8.328125 4.75 -8.328125 L 3.953125 -8.328125 Z M 3.953125 -4.375 L 3.953125 -2.1875 L 4.953125 -2.1875 C 5.835938 -2.1875 6.28125 -2.554688 6.28125 -3.296875 C 6.28125 -3.648438 6.160156 -3.914062 5.921875 -4.09375 C 5.679688 -4.28125 5.335938 -4.375 4.890625 -4.375 Z M 3.953125 -4.375 "/></g></g><g transform="translate(63.620244, 24.460704)"><g><path d="M 8.703125 -4.078125 C 8.703125 -2.742188 8.34375 -1.707031 7.625 -0.96875 C 6.914062 -0.226562 5.921875 0.140625 4.640625 0.140625 C 3.410156 0.140625 2.429688 -0.234375 1.703125 -0.984375 C 0.972656 -1.742188 0.609375 -2.773438 0.609375 -4.078125 C 0.609375 -5.390625 0.960938 -6.410156 1.671875 -7.140625 C 2.390625 -7.878906 3.394531 -8.25 4.6875 -8.25 C 5.476562 -8.25 6.179688 -8.078125 6.796875 -7.734375 C 7.410156 -7.398438 7.878906 -6.914062 8.203125 -6.28125 C 8.535156 -5.65625 8.703125 -4.921875 8.703125 -4.078125 Z M 3.453125 -4.078125 C 3.453125 -3.378906 3.546875 -2.847656 3.734375 -2.484375 C 3.921875 -2.117188 4.234375 -1.9375 4.671875 -1.9375 C 5.109375 -1.9375 5.414062 -2.117188 5.59375 -2.484375 C 5.769531 -2.847656 5.859375 -3.378906 5.859375 -4.078125 C 5.859375 -4.765625 5.765625 -5.285156 5.578125 -5.640625 C 5.398438 -5.992188 5.09375 -6.171875 4.65625 -6.171875 C 4.226562 -6.171875 3.921875 -5.992188 3.734375 -5.640625 C 3.546875 -5.285156 3.453125 -4.765625 3.453125 -4.078125 Z M 3.453125 -4.078125 "/></g></g><g transform="translate(72.956068, 24.460704)"><g><path d="M 3.78125 0 L 0.984375 0 L 0.984375 -8.109375 L 3.78125 -8.109375 Z M 0.90625 -10.125 C 0.90625 -10.539062 1.019531 -10.851562 1.25 -11.0625 C 1.488281 -11.269531 1.867188 -11.375 2.390625 -11.375 C 2.910156 -11.375 3.289062 -11.265625 3.53125 -11.046875 C 3.769531 -10.835938 3.890625 -10.53125 3.890625 -10.125 C 3.890625 -9.300781 3.390625 -8.890625 2.390625 -8.890625 C 1.398438 -8.890625 0.90625 -9.300781 0.90625 -10.125 Z M 0.90625 -10.125 "/></g></g><g transform="translate(77.720557, 24.460704)"><g><path d="M 3.765625 0 L 0.96875 0 L 0.96875 -11.140625 L 3.765625 -11.140625 Z M 3.765625 0 "/></g></g><g transform="translate(82.456431, 24.460704)"><g><path d="M 4.875 0.140625 C 3.53125 0.140625 2.484375 -0.21875 1.734375 -0.9375 C 0.984375 -1.65625 0.609375 -2.675781 0.609375 -4 C 0.609375 -5.363281 0.953125 -6.410156 1.640625 -7.140625 C 2.335938 -7.878906 3.328125 -8.25 4.609375 -8.25 C 5.835938 -8.25 6.78125 -7.929688 7.4375 -7.296875 C 8.101562 -6.660156 8.4375 -5.742188 8.4375 -4.546875 L 8.4375 -3.296875 L 3.4375 -3.296875 C 3.457031 -2.847656 3.625 -2.492188 3.9375 -2.234375 C 4.25 -1.972656 4.675781 -1.84375 5.21875 -1.84375 C 5.707031 -1.84375 6.15625 -1.890625 6.5625 -1.984375 C 6.976562 -2.078125 7.429688 -2.238281 7.921875 -2.46875 L 7.921875 -0.453125 C 7.472656 -0.222656 7.015625 -0.0664062 6.546875 0.015625 C 6.085938 0.0976562 5.53125 0.140625 4.875 0.140625 Z M 4.71875 -6.34375 C 4.382812 -6.34375 4.109375 -6.238281 3.890625 -6.03125 C 3.671875 -5.820312 3.539062 -5.5 3.5 -5.0625 L 5.90625 -5.0625 C 5.894531 -5.445312 5.78125 -5.753906 5.5625 -5.984375 C 5.351562 -6.222656 5.070312 -6.34375 4.71875 -6.34375 Z M 4.71875 -6.34375 "/></g></g><g transform="translate(91.513253, 24.460704)"><g><path d="M 5.859375 -8.25 C 6.097656 -8.25 6.332031 -8.226562 6.5625 -8.1875 L 6.71875 -8.171875 L 6.46875 -5.53125 C 6.238281 -5.582031 5.921875 -5.609375 5.515625 -5.609375 C 4.898438 -5.609375 4.453125 -5.46875 4.171875 -5.1875 C 3.898438 -4.90625 3.765625 -4.503906 3.765625 -3.984375 L 3.765625 0 L 0.96875 0 L 0.96875 -8.109375 L 3.046875 -8.109375 L 3.484375 -6.8125 L 3.625 -6.8125 C 3.851562 -7.238281 4.175781 -7.582031 4.59375 -7.84375 C 5.007812 -8.113281 5.429688 -8.25 5.859375 -8.25 Z M 5.859375 -8.25 "/></g></g><g transform="translate(98.388139, 24.460704)"><g><path d="M 5.828125 0.140625 C 5.421875 0.140625 5.054688 0.0703125 4.734375 -0.0625 C 4.410156 -0.195312 4.085938 -0.441406 3.765625 -0.796875 L 3.640625 -0.796875 C 3.722656 -0.222656 3.765625 0.128906 3.765625 0.265625 L 3.765625 3.515625 L 0.96875 3.515625 L 0.96875 -8.109375 L 3.234375 -8.109375 L 3.640625 -7.078125 L 3.765625 -7.078125 C 4.285156 -7.859375 5.003906 -8.25 5.921875 -8.25 C 6.816406 -8.25 7.519531 -7.875 8.03125 -7.125 C 8.539062 -6.382812 8.796875 -5.367188 8.796875 -4.078125 C 8.796875 -2.765625 8.53125 -1.734375 8 -0.984375 C 7.46875 -0.234375 6.742188 0.140625 5.828125 0.140625 Z M 4.890625 -6.046875 C 4.484375 -6.046875 4.195312 -5.898438 4.03125 -5.609375 C 3.863281 -5.316406 3.773438 -4.882812 3.765625 -4.3125 L 3.765625 -4.09375 C 3.765625 -3.394531 3.859375 -2.890625 4.046875 -2.578125 C 4.234375 -2.265625 4.523438 -2.109375 4.921875 -2.109375 C 5.273438 -2.109375 5.535156 -2.257812 5.703125 -2.5625 C 5.867188 -2.875 5.953125 -3.382812 5.953125 -4.09375 C 5.953125 -4.789062 5.867188 -5.289062 5.703125 -5.59375 C 5.535156 -5.894531 5.265625 -6.046875 4.890625 -6.046875 Z M 4.890625 -6.046875 "/></g></g><g transform="translate(107.80981, 24.460704)"><g><path d="M 3.765625 0 L 0.96875 0 L 0.96875 -11.140625 L 3.765625 -11.140625 Z M 3.765625 0 "/></g></g><g transform="translate(112.545684, 24.460704)"><g><path d="M 6.25 0 L 5.71875 -1.078125 L 5.65625 -1.078125 C 5.28125 -0.609375 4.894531 -0.285156 4.5 -0.109375 C 4.113281 0.0546875 3.609375 0.140625 2.984375 0.140625 C 2.222656 0.140625 1.625 -0.0859375 1.1875 -0.546875 C 0.75 -1.003906 0.53125 -1.644531 0.53125 -2.46875 C 0.53125 -3.332031 0.828125 -3.972656 1.421875 -4.390625 C 2.023438 -4.816406 2.898438 -5.054688 4.046875 -5.109375 L 5.390625 -5.15625 L 5.390625 -5.28125 C 5.390625 -5.945312 5.0625 -6.28125 4.40625 -6.28125 C 3.8125 -6.28125 3.0625 -6.078125 2.15625 -5.671875 L 1.34375 -7.515625 C 2.289062 -8.003906 3.484375 -8.25 4.921875 -8.25 C 5.960938 -8.25 6.765625 -7.988281 7.328125 -7.46875 C 7.898438 -6.957031 8.1875 -6.238281 8.1875 -5.3125 L 8.1875 0 Z M 4.171875 -1.828125 C 4.515625 -1.828125 4.804688 -1.929688 5.046875 -2.140625 C 5.285156 -2.359375 5.40625 -2.640625 5.40625 -2.984375 L 5.40625 -3.625 L 4.765625 -3.59375 C 3.847656 -3.5625 3.390625 -3.222656 3.390625 -2.578125 C 3.390625 -2.078125 3.648438 -1.828125 4.171875 -1.828125 Z M 4.171875 -1.828125 "/></g></g><g transform="translate(121.674044, 24.460704)"><g><path d="M 4.9375 -2.0625 C 5.3125 -2.0625 5.765625 -2.15625 6.296875 -2.34375 L 6.296875 -0.3125 C 5.910156 -0.144531 5.546875 -0.03125 5.203125 0.03125 C 4.867188 0.101562 4.472656 0.140625 4.015625 0.140625 C 3.078125 0.140625 2.398438 -0.0859375 1.984375 -0.546875 C 1.566406 -1.003906 1.359375 -1.710938 1.359375 -2.671875 L 1.359375 -6.015625 L 0.375 -6.015625 L 0.375 -7.15625 L 1.625 -8.03125 L 2.34375 -9.734375 L 4.171875 -9.734375 L 4.171875 -8.109375 L 6.171875 -8.109375 L 6.171875 -6.015625 L 4.171875 -6.015625 L 4.171875 -2.859375 C 4.171875 -2.328125 4.425781 -2.0625 4.9375 -2.0625 Z M 4.9375 -2.0625 "/></g></g><g transform="translate(128.413007, 24.460704)"><g><path d="M 4.875 0.140625 C 3.53125 0.140625 2.484375 -0.21875 1.734375 -0.9375 C 0.984375 -1.65625 0.609375 -2.675781 0.609375 -4 C 0.609375 -5.363281 0.953125 -6.410156 1.640625 -7.140625 C 2.335938 -7.878906 3.328125 -8.25 4.609375 -8.25 C 5.835938 -8.25 6.78125 -7.929688 7.4375 -7.296875 C 8.101562 -6.660156 8.4375 -5.742188 8.4375 -4.546875 L 8.4375 -3.296875 L 3.4375 -3.296875 C 3.457031 -2.847656 3.625 -2.492188 3.9375 -2.234375 C 4.25 -1.972656 4.675781 -1.84375 5.21875 -1.84375 C 5.707031 -1.84375 6.15625 -1.890625 6.5625 -1.984375 C 6.976562 -2.078125 7.429688 -2.238281 7.921875 -2.46875 L 7.921875 -0.453125 C 7.472656 -0.222656 7.015625 -0.0664062 6.546875 0.015625 C 6.085938 0.0976562 5.53125 0.140625 4.875 0.140625 Z M 4.71875 -6.34375 C 4.382812 -6.34375 4.109375 -6.238281 3.890625 -6.03125 C 3.671875 -5.820312 3.539062 -5.5 3.5 -5.0625 L 5.90625 -5.0625 C 5.894531 -5.445312 5.78125 -5.753906 5.5625 -5.984375 C 5.351562 -6.222656 5.070312 -6.34375 4.71875 -6.34375 Z M 4.71875 -6.34375 "/></g></g><g transform="translate(137.469829, 24.460704)"><g/></g><g transform="translate(141.275697, 24.460704)"><g><path d="M 11.09375 0 L 7.390625 0 L 3.5625 -7.375 L 3.5 -7.375 C 3.59375 -6.207031 3.640625 -5.320312 3.640625 -4.71875 L 3.640625 0 L 1.125 0 L 1.125 -10.46875 L 4.828125 -10.46875 L 8.625 -3.1875 L 8.671875 -3.1875 C 8.609375 -4.238281 8.578125 -5.085938 8.578125 -5.734375 L 8.578125 -10.46875 L 11.09375 -10.46875 Z M 11.09375 0 "/></g></g><g transform="translate(153.494538, 24.460704)"><g><path d="M 4.875 0.140625 C 3.53125 0.140625 2.484375 -0.21875 1.734375 -0.9375 C 0.984375 -1.65625 0.609375 -2.675781 0.609375 -4 C 0.609375 -5.363281 0.953125 -6.410156 1.640625 -7.140625 C 2.335938 -7.878906 3.328125 -8.25 4.609375 -8.25 C 5.835938 -8.25 6.78125 -7.929688 7.4375 -7.296875 C 8.101562 -6.660156 8.4375 -5.742188 8.4375 -4.546875 L 8.4375 -3.296875 L 3.4375 -3.296875 C 3.457031 -2.847656 3.625 -2.492188 3.9375 -2.234375 C 4.25 -1.972656 4.675781 -1.84375 5.21875 -1.84375 C 5.707031 -1.84375 6.15625 -1.890625 6.5625 -1.984375 C 6.976562 -2.078125 7.429688 -2.238281 7.921875 -2.46875 L 7.921875 -0.453125 C 7.472656 -0.222656 7.015625 -0.0664062 6.546875 0.015625 C 6.085938 0.0976562 5.53125 0.140625 4.875 0.140625 Z M 4.71875 -6.34375 C 4.382812 -6.34375 4.109375 -6.238281 3.890625 -6.03125 C 3.671875 -5.820312 3.539062 -5.5 3.5 -5.0625 L 5.90625 -5.0625 C 5.894531 -5.445312 5.78125 -5.753906 5.5625 -5.984375 C 5.351562 -6.222656 5.070312 -6.34375 4.71875 -6.34375 Z M 4.71875 -6.34375 "/></g></g><g transform="translate(162.55136, 24.460704)"><g><path d="M 2.6875 -4.140625 L 0.203125 -8.109375 L 3.390625 -8.109375 L 4.609375 -5.828125 L 5.875 -8.109375 L 9.0625 -8.109375 L 6.515625 -4.140625 L 9.15625 0 L 5.984375 0 L 4.609375 -2.46875 L 3.25 0 L 0.078125 0 Z M 2.6875 -4.140625 "/></g></g><g transform="translate(171.779875, 24.460704)"><g><path d="M 4.9375 -2.0625 C 5.3125 -2.0625 5.765625 -2.15625 6.296875 -2.34375 L 6.296875 -0.3125 C 5.910156 -0.144531 5.546875 -0.03125 5.203125 0.03125 C 4.867188 0.101562 4.472656 0.140625 4.015625 0.140625 C 3.078125 0.140625 2.398438 -0.0859375 1.984375 -0.546875 C 1.566406 -1.003906 1.359375 -1.710938 1.359375 -2.671875 L 1.359375 -6.015625 L 0.375 -6.015625 L 0.375 -7.15625 L 1.625 -8.03125 L 2.34375 -9.734375 L 4.171875 -9.734375 L 4.171875 -8.109375 L 6.171875 -8.109375 L 6.171875 -6.015625 L 4.171875 -6.015625 L 4.171875 -2.859375 C 4.171875 -2.328125 4.425781 -2.0625 4.9375 -2.0625 Z M 4.9375 -2.0625 "/></g></g></g></svg>